<svg xmlns="http://www.w3.org/2000/svg" viewBox="0 0 24 24" width="24" height="24" role="img" aria-labelledby="title-quest" stroke-linejoin="round" stroke-linecap="round">
<title id="title-quest">퀘스트</title>

  <path d="M6 3.8h11.5v14.8c0 1.15-.8 2-1.9 2H6.4c-1.25 0-2.2-.9-2.2-2.2V5.8c0-1.1.8-2 1.8-2Z" fill="#FFF4DF" stroke="#103F7E" stroke-width="1.8"/>
  <path d="M4.2 6.3a1.8 1.8 0 0 1 3.6 0v1.2H4.2Z" fill="#FFC85C" stroke="#103F7E" stroke-width="1.3"/>
  <path d="M8.2 11h4.7M8.2 14.4H12" stroke="#7599B4" stroke-width="1.35" stroke-linecap="round"/>
  <path d="m18.3 6.4 1.2 2.3 2.6.4-1.9 1.8.45 2.5-2.35-1.25-2.3 1.25.45-2.5-1.9-1.8 2.6-.4Z" fill="#FFC85C" stroke="#103F7E" stroke-width="1.15" stroke-linejoin="round"/>
</svg>
