{"accessors":[{"bufferView":0,"componentType":5126,"count":24,"max":[0.2,0.09999999999999998,0.14],"min":[-0.2,-0.25,-0.14],"type":"VEC3"},{"bufferView":1,"componentType":5126,"count":24,"type":"VEC3"},{"bufferView":2,"componentType":5123,"count":36,"type":"SCALAR"}],"asset":{"generator":"INHAGAME independent QA cuboids v1","version":"2.0"},"bufferViews":[{"buffer":0,"byteLength":288,"byteOffset":0,"target":34962},{"buffer":0,"byteLength":288,"byteOffset":288,"target":34962},{"buffer":0,"byteLength":72,"byteOffset":576,"target":34963}],"buffers":[{"byteLength":648,"uri":"data:application/octet-stream;base64,"}],"materials":[{"pbrMetallicRoughness":{"baseColorFactor":[0.2,0.55,0.55,1],"metallicFactor":0,"roughnessFactor":1}}],"meshes":[{"name":"qa_top","primitives":[{"attributes":{"NORMAL":1,"POSITION":0},"indices":2,"material":0}]}],"nodes":[{"children":[1],"name":"Public_QA_Top"},{"mesh":0,"name":"qa_top"}],"scene":0,"scenes":[{"nodes":[0]}]}
